<?xml version="1.0" standalone="no"?>
<!DOCTYPE svg PUBLIC "-//W3C//DTD SVG 20010904//EN"
 "http://www.w3.org/TR/2001/REC-SVG-20010904/DTD/svg10.dtd">
<svg version="1.0" xmlns="http://www.w3.org/2000/svg"
 width="512.000000pt" height="512.000000pt" viewBox="0 0 512.000000 512.000000"
 preserveAspectRatio="xMidYMid meet">

<g transform="translate(0.000000,512.000000) scale(0.100000,-0.100000)"
fill="#ffffff" stroke="none">
<path d="M2321 5110 c-868 -84 -1644 -610 -2037 -1382 -139 -273 -221 -536
-266 -853 -20 -140 -17 -504 6 -660 39 -278 121 -541 247 -794 249 -502 647
-900 1150 -1150 815 -406 1779 -350 2539 147 297 194 579 482 771 788 74 116
184 342 234 478 51 138 110 376 131 531 23 157 26 521 6 660 -43 299 -120 554
-246 810 -378 768 -1090 1285 -1941 1411 -122 18 -466 26 -594 14z m898 -960
c39 -11 86 -51 107 -92 8 -15 14 -50 14 -78 0 -57 -15 -93 -57 -132 -86 -82
-222 -55 -279 54 -8 15 -14 50 -14 78 0 57 15 93 57 132 48 46 103 58 172 38z
m635 -66 c42 -41 34 -50 -351 -437 -203 -202 -378 -370 -390 -373 -30 -8 -62
12 -69 42 -6 24 27 60 372 405 267 267 385 379 401 379 12 0 29 -7 37 -16z
m-1602 -442 c49 -31 1113 -1102 1132 -1139 9 -18 16 -50 16 -73 0 -88 -51
-149 -148 -175 -156 -43 -368 -111 -471 -152 -216 -85 -454 -218 -566 -316
l-40 -36 262 -263 c225 -227 263 -269 273 -306 34 -129 -74 -242 -207 -217
-33 6 -76 44 -308 276 l-271 269 -44 -22 c-34 -17 -63 -22 -120 -22 -113 0
-143 20 -356 236 -161 162 -183 189 -199 237 -24 74 -17 162 20 228 14 28 60
83 101 124 l74 73 223 -222 c123 -122 231 -222 240 -222 24 0 57 36 57 62 0
15 -67 89 -219 242 l-220 221 41 50 c174 213 351 601 448 985 33 129 66 171
147 188 46 10 91 1 135 -26z m1571 -86 c162 -69 129 -310 -46 -342 -86 -15
-189 62 -202 151 -21 138 119 246 248 191z"/>
</g>
</svg>
