<?xml version="1.0" standalone="no"?>
<!DOCTYPE svg PUBLIC "-//W3C//DTD SVG 20010904//EN"
 "http://www.w3.org/TR/2001/REC-SVG-20010904/DTD/svg10.dtd">
<svg version="1.0" xmlns="http://www.w3.org/2000/svg"
 width="512.000000pt" height="512.000000pt" viewBox="0 0 512.000000 512.000000"
 preserveAspectRatio="xMidYMid meet">

<g transform="translate(0.000000,512.000000) scale(0.100000,-0.100000)"
fill="#ffffff" stroke="none">
<path d="M1506 4869 c-62 -15 -153 -68 -197 -116 -22 -24 -55 -74 -72 -111
l-32 -67 0 -1260 0 -1260 75 -32 c41 -17 112 -45 158 -62 l82 -30 0 1290 0
1290 25 24 24 25 991 0 991 0 24 -25 25 -24 0 -1290 0 -1290 83 30 c45 17 116
45 157 62 l75 32 0 1261 0 1260 -37 76 c-45 91 -103 147 -196 191 l-67 32
-1035 2 c-604 1 -1051 -3 -1074 -8z"/>
<path d="M1680 3141 l0 -1259 128 -31 c503 -120 1006 -120 1505 0 l127 31 0
1259 0 1259 -880 0 -880 0 0 -1259z m1434 47 c55 -16 138 -99 154 -154 8 -28
12 -129 12 -314 0 -185 -4 -286 -12 -314 -26 -86 -136 -166 -228 -166 -92 0
-202 80 -228 166 -17 57 -17 571 0 628 15 51 99 137 148 153 48 15 105 15 154
1z"/>
<path d="M2985 3015 l-25 -24 0 -271 0 -271 25 -24 c15 -16 36 -25 55 -25 19
0 40 9 55 25 l25 24 0 271 0 271 -25 24 c-15 16 -36 25 -55 25 -19 0 -40 -9
-55 -25z"/>
<path d="M466 2950 c-63 -16 -153 -70 -197 -117 -22 -24 -55 -74 -72 -111 -29
-61 -32 -76 -32 -163 0 -90 2 -99 37 -171 45 -91 103 -147 196 -191 61 -29 76
-32 162 -32 86 0 101 3 162 32 93 44 151 100 196 191 35 72 37 81 37 172 0 91
-2 100 -37 172 -68 136 -188 217 -336 224 -42 2 -94 -1 -116 -6z"/>
<path d="M4466 2950 c-63 -16 -153 -70 -197 -117 -22 -24 -55 -74 -72 -111
-29 -61 -32 -76 -32 -163 0 -90 2 -99 37 -171 45 -91 103 -147 196 -191 61
-29 76 -32 162 -32 86 0 101 3 162 32 93 44 151 100 196 191 35 72 37 81 37
172 0 91 -2 100 -37 172 -68 136 -188 217 -336 224 -42 2 -94 -1 -116 -6z"/>
<path d="M943 2151 c-19 -16 -23 -29 -23 -79 l0 -59 140 -67 140 -66 0 -636 0
-635 25 -24 c23 -24 29 -25 160 -25 l135 0 0 603 0 603 -57 18 c-32 10 -104
36 -160 58 l-103 39 0 87 0 87 -115 58 c-63 31 -116 57 -118 57 -1 -1 -12 -9
-24 -19z"/>
<path d="M4033 2112 l-113 -57 0 -87 0 -86 -102 -40 c-57 -22 -129 -48 -160
-58 l-58 -18 0 -603 0 -603 135 0 c131 0 137 1 160 25 l25 24 0 635 0 636 140
66 140 67 0 62 c0 56 -3 65 -25 79 -13 9 -26 16 -27 15 -2 0 -54 -26 -115 -57z"/>
<path d="M360 1163 l0 -874 25 -24 c23 -24 28 -25 175 -25 147 0 152 1 175 25
l25 24 0 875 0 875 -42 -15 c-72 -26 -202 -28 -285 -7 l-73 19 0 -873z"/>
<path d="M4360 1163 l0 -874 25 -24 c23 -24 28 -25 175 -25 147 0 152 1 175
25 l25 24 0 875 0 875 -42 -15 c-72 -26 -202 -28 -285 -7 l-73 19 0 -873z"/>
<path d="M1680 1135 l0 -575 880 0 880 0 0 576 0 576 -22 -4 c-419 -90 -521
-102 -853 -102 -315 0 -488 18 -753 80 -57 13 -110 24 -118 24 -12 0 -14 -87
-14 -575z"/>
</g>
</svg>
